<?xml version="1.0" encoding="UTF-8" standalone="no"?>
<!-- Created with Inkscape (http://www.inkscape.org/) -->

<svg
   width="1in"
   height="1in"
   viewBox="0 0 25.4 25.4"
   version="1.1"
   id="svg5"
   inkscape:version="1.2.2 (732a01da63, 2022-12-09)"
   sodipodi:docname="V_favicon.svg"
   xmlns:inkscape="http://www.inkscape.org/namespaces/inkscape"
   xmlns:sodipodi="http://sodipodi.sourceforge.net/DTD/sodipodi-0.dtd"
   xmlns="http://www.w3.org/2000/svg"
   xmlns:svg="http://www.w3.org/2000/svg">
  <sodipodi:namedview
     id="namedview7"
     pagecolor="#505050"
     bordercolor="#ffffff"
     borderopacity="1"
     inkscape:showpageshadow="0"
     inkscape:pageopacity="0"
     inkscape:pagecheckerboard="1"
     inkscape:deskcolor="#505050"
     inkscape:document-units="mm"
     showgrid="false"
     inkscape:zoom="11.313709"
     inkscape:cx="41.719298"
     inkscape:cy="45.785162"
     inkscape:window-width="2560"
     inkscape:window-height="1369"
     inkscape:window-x="-8"
     inkscape:window-y="-3"
     inkscape:window-maximized="1"
     inkscape:current-layer="layer1" />
  <defs
     id="defs2">
    <linearGradient
       id="linearGradient2935"
       inkscape:swatch="solid">
      <stop
         style="stop-color:#000000;stop-opacity:1;"
         offset="0"
         id="stop2933" />
    </linearGradient>
    <linearGradient
       id="linearGradient927"
       inkscape:swatch="gradient">
      <stop
         style="stop-color:#ffffff;stop-opacity:1;"
         offset="0"
         id="stop923" />
      <stop
         style="stop-color:#cccccc;stop-opacity:0;"
         offset="1"
         id="stop925" />
    </linearGradient>
  </defs>
  <g
     inkscape:label="Layer 1"
     inkscape:groupmode="layer"
     id="layer1">
    <path
       id="path234"
       style="fill:#b3b3b3;fill-rule:evenodd;stroke-width:0.225387"
       d="m 23.678217,11.687927 a 11.43,11.43 0 0 1 -11.43,11.430001 A 11.43,11.43 0 0 1 0.81821632,11.687927 11.43,11.43 0 0 1 12.248217,0.25792694 a 11.43,11.43 0 0 1 11.43,11.43000006 z" />
    <g
       aria-label="V"
       transform="scale(0.96776632,1.0333073)"
       id="text4608"
       style="font-size:31.8777px;font-family:'Brightness Inverted';-inkscape-font-specification:'Brightness Inverted, Normal';fill:#4f000c;fill-rule:evenodd;stroke-width:0.332015">
      <path
         d="M 11.066877,13.693245 7.1777972,16.307216 3.7031278,18.602411 Q 4.6275811,17.805468 5.1695021,16.753504 5.6157899,15.829051 5.7751784,14.490187 5.9345669,13.151324 5.2332575,11.334295 L 1.3123003,1.2290638 H 6.2214662 Z M 21.235863,6.8714168 14.573424,11.334295 18.526259,1.2290638 h 4.909166 z m 3.697814,-1.275108 -0.350655,0.2231439 h 0.06376 q 0.06376,-0.063755 0.127511,-0.095633 0.09563,-0.063755 0.159389,-0.1275108 z m -13.388635,8.8938782 -0.06376,0.06376 q 0.03188,-0.03188 0.06376,-0.03188 z M 24.328,6.0107189 23.817957,6.3294959 q 0.159389,-0.063755 0.223144,-0.031878 L 24.232367,6.106352 Z M 7.624085,17.104159 l 0.031878,0.06376 q 0.063755,-0.127511 0.1275108,-0.159388 z m 7.937548,4.749777 q -0.06376,-0.09563 0.09563,-0.191266 l 0.223144,-0.573799 q 0,0.06376 -0.06376,0.06376 -0.127511,0.127511 -0.191266,0 -0.06375,-0.06376 0.09563,-0.191266 0.159389,-0.06376 0.191266,0 0.03188,0.03188 0.03188,0.03188 l 0.637554,-1.625762 q -0.127511,0 -0.127511,-0.03188 -0.127511,-0.127511 0.09563,-0.255022 0.06376,-0.03188 0.159389,-0.03188 l 0.637554,-1.53013 q -0.03188,0 -0.06376,0 0,-0.03188 -0.03188,-0.03188 -0.06376,-0.159388 0.12751,-0.255021 0.06376,-0.06376 0.09563,-0.06376 l 0.159388,-0.382532 h -0.03188 q -0.06376,0.06376 -0.159388,0.06376 -0.09563,0 -0.127511,-0.06376 -0.127511,-0.127511 0.127511,-0.255022 0.191266,-0.191266 0.286899,-0.03188 l 0.350655,-0.860697 q -0.127511,-0.159389 0.127511,-0.2869 l 0.12751,-0.350655 q -0.09563,0.03188 -0.223143,-0.03188 -0.06376,-0.159389 0.159388,-0.318777 0.159389,-0.09563 0.255022,-0.06376 l 0.350654,-0.892575 q 0,-0.03188 0,-0.03188 0.03188,-0.03188 0.03188,-0.06376 l 0.159389,-0.382533 v -0.03188 q -0.06376,0 -0.127511,-0.06376 -0.127511,-0.191266 0.159388,-0.350655 0.127511,-0.06376 0.159389,-0.06376 0.06376,-0.191266 0.09563,-0.255022 -0.09563,0.06376 -0.223144,0.06376 -0.09563,0 -0.127511,-0.06376 -0.06376,-0.09563 -0.03188,-0.191266 0.06376,-0.127511 0.191266,-0.191266 0.255021,-0.191266 0.382532,-0.03188 0.09563,-0.191266 0.159389,-0.350654 0.09563,-0.191267 0.191266,-0.350655 -0.06376,0 -0.127511,-0.06375 -0.127511,-0.191267 0.159389,-0.382533 0.12751,-0.09563 0.255021,-0.09563 0.09563,-0.159389 0.191266,-0.318777 0.09563,-0.159389 0.191267,-0.318777 l -0.03188,-0.03188 q -0.09563,-0.2231436 0.191266,-0.4144098 0.09563,-0.095633 0.223144,-0.095633 0.06376,-0.063755 0.09563,-0.1275108 0.06376,-0.095633 0.127511,-0.1912662 -0.03188,0.095633 -0.127511,0.1275108 -0.318777,0.2231439 -0.478165,0 -0.06376,-0.063755 0,-0.1912662 0.06376,-0.1275108 0.191266,-0.223144 0.350654,-0.2231439 0.478165,0 0.06376,0.1275109 -0.03188,0.2550217 0.06376,-0.063755 0.09563,-0.1275108 0.03188,-0.063756 0.09563,-0.1275109 -0.03188,0 -0.09563,-0.063755 -0.127511,-0.1912662 0.191266,-0.4144101 0.191266,-0.1593885 0.350655,-0.095633 l 0.191266,-0.1912662 q 0.03188,-0.063755 0.159388,-0.1912662 L 22.38346,7.8596255 q -0.191266,0.063755 -0.318777,-0.063755 -0.12751,-0.2231439 0.191267,-0.4462878 0.318777,-0.2231439 0.510043,-0.031878 0,0.031878 0,0.063755 0.03188,0 0.03188,0.063755 0,-0.031878 0.06376,-0.095633 -0.06376,-0.031878 -0.06376,-0.031878 -0.159389,-0.2231439 0.191266,-0.4462878 0.255021,-0.1912662 0.446288,-0.063755 0.03188,0 0.03188,0 0,-0.031878 0.03188,-0.031878 -0.06376,-0.1275108 0.127511,-0.318777 L 21.96905,7.5408485 q -0.06376,0.031878 -0.06376,0.031878 -0.06376,0.031878 -0.06376,0.031878 l -0.541921,0.3506547 q -0.03188,0.031878 -0.06376,0.063755 -0.03188,0 -0.06375,0.031878 -0.06376,0.063755 -0.127511,0.063755 l -0.191266,0.1275108 v -0.031878 l -0.223144,0.1593885 q -0.06376,0.095633 -0.159389,0.1593885 -0.159388,0.095633 -0.223143,0.095633 L 19.897,8.8478342 q -0.06376,0.095633 -0.159389,0.1593885 -0.09563,0.095633 -0.223144,0.095633 l -0.350654,0.2550216 q -0.09563,0.095633 -0.159389,0.1275108 -0.09563,0.095633 -0.191266,0.095633 L 18.462503,9.836043 18.303115,9.9954315 q -0.127511,0.063755 -0.191266,0.063755 l -0.382533,0.255021 -0.159388,0.159389 q -0.127511,0.06376 -0.191267,0.06376 l -0.382532,0.2869 q -0.09563,0.09563 -0.159388,0.12751 -0.06376,0.06376 -0.159389,0.06376 l -0.41441,0.286899 q -0.03188,0.06376 -0.06376,0.09563 -0.03188,0 -0.06376,0.03188 -0.127511,0.06376 -0.159388,0.06376 l -0.446288,0.318777 q -0.03188,0.03188 -0.06376,0.06376 -0.03188,0 -0.06376,0.03188 -0.06376,0.06376 -0.127511,0.06376 l -0.478165,0.318777 q -0.06376,0.06376 -0.127511,0.09563 -0.06376,0.06375 -0.09563,0.06375 l -0.350655,0.223144 -0.03188,0.09563 q 0.03188,-0.03188 0.03188,-0.06376 0.03188,-0.03188 0.09563,-0.06376 0.350655,-0.223144 0.510043,0 0.127511,0.191266 -0.223144,0.41441 -0.159388,0.09563 -0.286899,0.127511 -0.127511,0 -0.191266,-0.09563 -0.03188,-0.03188 -0.03188,-0.09563 l -0.03188,0.09563 q 0.03188,0 0.03188,0.03188 0.06376,0.06376 0,0.223144 -0.03188,0.127511 -0.191266,0.223144 h -0.03188 l -0.06376,0.159388 q 0.127511,0 0.223144,0.09563 0.127511,0.191266 -0.223144,0.41441 -0.06375,0.06376 -0.127511,0.06376 -0.03188,0 -0.09563,0.03188 l -0.06376,0.159388 q 0.286899,-0.191266 0.41441,0 0.127511,0.255022 -0.191266,0.41441 -0.255022,0.159389 -0.414411,0.06376 l -0.255021,0.669432 q 0.06376,0 0.06376,0.06376 0.09563,0.159388 -0.159388,0.382532 -0.03188,0 -0.06376,0.03188 0,0 -0.03188,0 l -0.06376,0.223144 q 0.159389,-0.06376 0.255022,0.03188 0.09563,0.191266 -0.191266,0.382532 -0.159389,0.09563 -0.2869,0.09563 l -0.06376,0.191266 -0.223144,-0.541921 -0.06376,0.06376 q -0.2869,0.191266 -0.41441,0 -0.127511,-0.127511 0.159388,-0.382533 0.127511,-0.06375 0.159389,-0.06375 l -0.03188,-0.159388 q -0.191266,0.06375 -0.255022,-0.06376 -0.09563,-0.159388 0.09563,-0.318777 l -0.09563,-0.223144 q 0,0.191266 -0.223144,0.318777 -0.12751,0.09563 -0.255021,0.09563 -0.127511,0 -0.191266,-0.06376 -0.159389,-0.223144 0.191266,-0.446288 0.286899,-0.191266 0.446288,-0.03188 l -0.09563,-0.223144 q -0.350654,0.223144 -0.510043,0 -0.127511,-0.191266 0.159389,-0.41441 L 10.7481,15.032108 q 0.318777,-0.159388 0.446288,0 0.159388,0.223144 -0.191267,0.446288 -0.159388,0.09563 -0.286899,0.09563 -0.127511,0 -0.191266,-0.09563 -0.06376,-0.06376 -0.03188,-0.191266 0.06375,-0.127511 0.191266,-0.223144 l -0.637554,0.446288 q 0.2869,-0.159389 0.446288,0 0.09563,0.223144 -0.223144,0.446288 -0.3506545,0.223143 -0.4781653,0.03188 -0.095633,-0.191266 0.1593885,-0.41441 l -0.637554,0.41441 q 0.318777,-0.159388 0.4462878,0 0.1275108,0.255022 -0.1912662,0.446288 -0.318777,0.223144 -0.5100432,0.03188 -0.095633,-0.191266 0.1593885,-0.41441 l -0.6056764,0.41441 q 0.2868993,-0.191266 0.4144102,0 0.1593885,0.223144 -0.1912663,0.446288 -0.3506547,0.223143 -0.4781655,0.03188 -0.1275108,-0.191266 0.1593885,-0.41441 l -0.637554,0.41441 q 0.2868993,-0.159388 0.4462878,0 0.095633,0.223144 -0.2231439,0.446288 -0.1593885,0.159389 -0.318777,0.09563 l 0.031878,0.159389 q 0.318777,-0.159389 0.4144101,0 0.1593885,0.223144 -0.1912662,0.446287 h -0.031878 l 0.063755,0.191267 q 0.031878,0.03188 0.031878,0.03188 0.031878,0 0.063755,0.03188 0.031878,0.09563 0,0.191266 l 0.095633,0.191266 q 0.031878,-0.09563 0.1275108,-0.12751 0.2868993,-0.223144 0.4144101,-0.03188 0.1275108,0.191266 -0.1593885,0.382532 -0.1593885,0.09563 -0.2550216,0.09563 l 0.063755,0.159388 q 0.1912662,-0.03188 0.2868993,0.06376 0.095633,0.127511 -0.1275108,0.350655 l 0.2550216,0.637554 q 0,0 0.063755,-0.06376 0.2868994,-0.159389 0.3825325,0 0.095633,0.127511 -0.1593885,0.318777 -0.1275108,0.06376 -0.1593885,0.06376 l 0.095633,0.255022 q 0.095633,0 0.1275108,0.06375 0.063755,0.09563 -0.031878,0.223144 l 0.2868993,0.701309 h 0.031878 q 0.1912662,-0.191266 0.2868993,-0.03188 0.095633,0.159388 -0.1275108,0.286899 -0.063755,0.06376 -0.063755,0.06376 l 0.4781655,1.211353 h 1.24323 q -0.03188,-0.03188 0,-0.06376 0.03188,-0.06376 0.09563,-0.127511 0.159389,-0.09563 0.255022,0 0.03188,0.06376 -0.09563,0.191266 h 0.541921 q 0.127511,-0.06376 0.191266,0 h 1.785151 q 0.03188,0 0.06376,-0.03188 0.09563,-0.06376 0.159388,0 l 0.03188,0.03188 h 0.637554 l 0.605676,-1.498252 z m -0.127511,-3.634058 q -0.191266,0.191266 -0.2869,0.03188 -0.12751,-0.159389 0.127511,-0.286899 0.223144,-0.159389 0.2869,0 0.12751,0.12751 -0.127511,0.255021 z m -1.370741,0.2869 q -0.191267,0.159388 -0.318777,0.03188 -0.09563,-0.159388 0.12751,-0.318777 0.09563,-0.06376 0.191267,-0.06376 0.09563,0 0.12751,0.06376 0.06376,0.06376 0,0.159389 -0.03188,0.06376 -0.12751,0.127511 z m -0.06376,0.701309 q -0.223144,0.09563 -0.318777,0 -0.06375,-0.09563 0.127511,-0.286899 0.09563,-0.06376 0.191266,-0.06376 0.09563,0 0.127511,0.06376 0.09563,0.09563 -0.127511,0.286899 z m 0.127511,-1.370741 q -0.255022,0.191266 -0.318777,0 -0.127511,-0.127511 0.127511,-0.318777 0.255021,-0.127511 0.350654,0 0.09563,0.159388 -0.159388,0.318777 z m 0.06376,-0.669432 q -0.223144,0.191266 -0.350654,0 -0.127511,-0.191266 0.159388,-0.350655 0.223144,-0.159388 0.350655,0 0.127511,0.191267 -0.159389,0.350655 z m -0.12751,-1.020086 q 0.255021,-0.255022 0.382532,-0.03188 0.09563,0.159389 -0.159389,0.350655 -0.12751,0.06376 -0.255021,0.09563 -0.09563,0 -0.127511,-0.06376 -0.127511,-0.191266 0.159389,-0.350654 z m 0.41441,2.996504 q 0.255021,-0.127511 0.286899,0 0.127511,0.12751 -0.09563,0.255021 -0.223144,0.127511 -0.286899,0 -0.127511,-0.127511 0.09563,-0.255021 z m 0.255021,-0.414411 q -0.223144,0.09563 -0.318777,0 -0.06376,-0.159388 0.127511,-0.286899 0.223144,-0.127511 0.318777,0 0.06376,0.127511 -0.127511,0.286899 z m 0.06376,-0.701309 q -0.255022,0.191266 -0.318777,0 -0.09563,-0.09563 0.12751,-0.286899 0.223144,-0.159389 0.318778,0 0.09563,0.09563 -0.127511,0.286899 z m 0.06375,-0.669432 q -0.223144,0.191267 -0.350655,0 -0.09563,-0.159388 0.159389,-0.318777 0.255022,-0.191266 0.318777,0 0.09563,0.159389 -0.127511,0.318777 z m 0.06376,-0.701309 q -0.09563,0.06376 -0.223144,0.09563 -0.09563,0 -0.127511,-0.06376 -0.127511,-0.159389 0.127511,-0.350655 0.286899,-0.159389 0.382532,0 0.09563,0.159388 -0.159388,0.318777 z m 0.06375,-0.669432 q -0.255022,0.191266 -0.382533,0 -0.12751,-0.127511 0.159389,-0.350654 0.286899,-0.159389 0.382532,0 0.127511,0.191266 -0.159388,0.350654 z m 2.837115,-4.367245 q 0.350655,-0.191266 0.446288,0 0.127511,0.191266 -0.191266,0.41441 -0.127511,0.06376 -0.255022,0.06376 -0.127511,0 -0.191266,-0.06376 -0.06376,-0.06375 0,-0.191266 0.06375,-0.127511 0.191266,-0.223144 z m 0.06376,-0.701309 q 0.350654,-0.191266 0.446287,0 0.159389,0.159388 -0.191266,0.41441 -0.127511,0.09563 -0.255021,0.09563 -0.127511,0 -0.191267,-0.06376 -0.159388,-0.223144 0.191267,-0.446288 z m 0.12751,1.785151 q -0.12751,0.06376 -0.255021,0.09563 -0.09563,0 -0.159389,-0.09563 -0.09563,-0.159388 0.159389,-0.382532 0.286899,-0.159389 0.446288,0 0.09563,0.159388 -0.191267,0.382532 z M 17.442417,11.81246 q -0.350655,0.223144 -0.478166,0.03188 -0.12751,-0.223144 0.191267,-0.446288 0.350654,-0.159388 0.478165,0 0.06375,0.09563 0,0.223144 -0.06376,0.127511 -0.191266,0.191266 z m -0.350655,0.2869 q 0.318777,-0.159389 0.446288,0 0.06376,0.06375 0,0.191266 -0.03188,0.127511 -0.159389,0.223144 -0.350654,0.191266 -0.446287,0 -0.06376,-0.06376 -0.03188,-0.191266 0.06376,-0.127511 0.191266,-0.223144 z m 0.191266,1.083842 q -0.286899,0.223143 -0.41441,0 -0.127511,-0.191267 0.191266,-0.382533 0.2869,-0.191266 0.414411,0 0.12751,0.223144 -0.191267,0.382533 z m -0.06376,0.669431 q -0.255022,0.223144 -0.382532,0.03188 -0.127511,-0.127511 0.159388,-0.382532 0.286899,-0.191267 0.41441,0 0.06376,0.06376 0,0.191266 -0.06376,0.09563 -0.191266,0.159388 z M 16.70923,12.290626 q -0.350655,0.223144 -0.478166,0.03188 -0.06376,-0.09563 0,-0.223144 0.06376,-0.127511 0.191266,-0.191266 0.350655,-0.223144 0.478166,-0.03188 0.159388,0.223144 -0.191266,0.41441 z m -0.318777,0.286899 q 0.286899,-0.159388 0.446288,0 0.06376,0.06376 0,0.191266 -0.06376,0.127511 -0.191267,0.223144 -0.350654,0.191267 -0.446287,0 -0.127511,-0.191266 0.191266,-0.41441 z m 0.06376,2.454583 q -0.286899,0.191266 -0.41441,0 -0.06376,-0.191266 0.159389,-0.350655 0.286899,-0.191266 0.41441,0 0.09563,0.159389 -0.159389,0.350655 z m -0.09563,0.669432 q -0.223144,0.159388 -0.350655,0.03188 -0.12751,-0.191267 0.159389,-0.350655 0.223144,-0.159389 0.350655,0 0.09563,0.159388 -0.159389,0.318777 z m 0.159389,-1.338864 q -0.2869,0.191267 -0.414411,0 -0.09563,-0.159388 0.159389,-0.382532 0.286899,-0.191266 0.41441,0 0.09563,0.159389 -0.159388,0.382532 z m 0.06376,-0.701309 q -0.255022,0.223144 -0.446288,0.03188 -0.09563,-0.191266 0.191266,-0.41441 0.2869,-0.191267 0.41441,0 0.127511,0.191266 -0.159388,0.382532 z m -0.605676,-0.860698 q -0.127511,0.06376 -0.255022,0.09563 -0.127511,0 -0.191266,-0.09563 -0.159389,-0.191266 0.191266,-0.41441 0.318777,-0.223144 0.446288,-0.03188 0.159388,0.223144 -0.191266,0.446288 z m -0.318777,0.286899 q 0.318777,-0.223143 0.446287,-0.03188 0.09563,0.223144 -0.191266,0.41441 -0.286899,0.223144 -0.446288,0 -0.06376,-0.06376 0,-0.191266 0.06376,-0.127511 0.191267,-0.191267 z m -0.06376,0.70131 q 0.2869,-0.191266 0.446288,-0.03188 0.06376,0.06376 0,0.191266 -0.06376,0.127511 -0.191266,0.191267 -0.286899,0.223143 -0.41441,0.03188 -0.09563,-0.223144 0.159388,-0.382532 z m 0.06376,2.390827 q -0.2869,0.159389 -0.382533,0.03188 -0.09563,-0.159388 0.159389,-0.350655 0.286899,-0.159388 0.382532,0 0.06376,0.159389 -0.159388,0.318777 z m -0.06376,0.70131 q -0.286899,0.09563 -0.350654,0 -0.09563,-0.159389 0.12751,-0.318777 0.255022,-0.159389 0.350655,0 0.127511,0.127511 -0.127511,0.318777 z m 0.127511,-1.370741 q -0.286899,0.159388 -0.382532,0 -0.127511,-0.191266 0.159388,-0.350655 0.286899,-0.159389 0.382533,0 0.12751,0.191266 -0.159389,0.350655 z m 0.06376,-0.669432 q -0.286899,0.191266 -0.41441,0 -0.09563,-0.159389 0.191267,-0.382532 0.286899,-0.159389 0.382532,0 0.09563,0.159388 -0.159389,0.382532 z m -0.573798,-0.892576 q -0.350655,0.223144 -0.446288,0 -0.06376,-0.06376 -0.03188,-0.191266 0.06376,-0.127511 0.191267,-0.191266 0.318777,-0.223144 0.446287,-0.03188 0.127511,0.191266 -0.159388,0.41441 z m -0.318777,0.318777 q 0.286899,-0.223144 0.41441,-0.03188 0.127511,0.223144 -0.191266,0.382532 -0.2869,0.223144 -0.41441,0.03188 -0.06376,-0.06376 -0.03188,-0.191266 0.06375,-0.127511 0.223144,-0.191267 z m -0.06376,0.70131 q 0.2869,-0.223144 0.414411,-0.03188 0.09563,0.159389 -0.191267,0.382533 -0.286899,0.159388 -0.382532,0 -0.127511,-0.191267 0.159388,-0.350655 z m 0.70131,2.582094 q -0.223144,0.191266 -0.350655,0 -0.06376,-0.127511 0.159389,-0.2869 0.223144,-0.159388 0.318777,0 0.06376,0.127511 -0.127511,0.2869 z m 0.382532,2.932748 q -0.159388,0.09563 -0.255021,0 -0.03188,-0.09563 0.09563,-0.223144 0.191266,-0.06376 0.255021,0 0.03188,0.09563 -0.09563,0.223144 z m 0.06376,-0.701309 q -0.191267,0.12751 -0.255022,0.03188 -0.06376,-0.12751 0.09563,-0.223144 0.191266,-0.191266 0.255022,-0.03188 0.06376,0.127511 -0.09563,0.223144 z m 0.06376,-0.669432 q -0.159388,0.127511 -0.286899,0 -0.06376,-0.09563 0.127511,-0.223144 0.191266,-0.191266 0.255021,-0.03188 0.127511,0.127511 -0.09563,0.255022 z m 0.06376,-0.669432 q -0.223143,0.127511 -0.286899,0 -0.06376,-0.159388 0.127511,-0.255021 0.159388,-0.159389 0.286899,-0.03188 0.03188,0.127511 -0.127511,0.286899 z m 0.06376,-0.701309 q -0.191266,0.159388 -0.318777,0.03188 -0.06376,-0.159388 0.127511,-0.286899 0.255021,-0.191266 0.318777,0 0.12751,0.127511 -0.127511,0.255022 z m 0.06376,-0.669432 q -0.223144,0.159389 -0.318777,0 -0.09563,-0.09563 0.127511,-0.286899 0.255022,-0.191266 0.318777,0 0.09563,0.09563 -0.127511,0.286899 z m 0.06376,-0.669432 q -0.255022,0.127511 -0.350655,0 -0.06376,-0.159388 0.159388,-0.318777 0.223144,-0.159388 0.350655,0 0.127511,0.127511 -0.159388,0.318777 z m 0.446287,2.231439 q -0.191266,0.127511 -0.255021,0 -0.06376,-0.12751 0.127511,-0.223144 0.191266,-0.191266 0.255021,-0.03188 0.06376,0.159388 -0.127511,0.255021 z m 0.09563,-0.669431 q -0.223144,0.12751 -0.2869,0 -0.127511,-0.127511 0.09563,-0.255022 0.223144,-0.159388 0.2869,-0.03188 0.06376,0.127511 -0.09563,0.2869 z m 0.06376,-0.70131 q -0.191266,0.159389 -0.318777,0.03188 -0.127511,-0.159389 0.127511,-0.286899 0.191266,-0.159389 0.318777,-0.03188 0.06376,0.191266 -0.127511,0.286899 z m 0.06376,-0.669431 q -0.09563,0.06376 -0.191266,0.06376 -0.09563,0 -0.127511,-0.06376 -0.09563,-0.09563 0.127511,-0.2869 0.223144,-0.159388 0.318777,0 0.09563,0.09563 -0.127511,0.2869 z m 0.06376,-0.70131 q -0.223144,0.159389 -0.350655,0.03188 -0.09563,-0.159389 0.159389,-0.318777 0.255021,-0.191266 0.318777,0 0.06376,0.06376 0,0.159388 -0.03188,0.06376 -0.127511,0.127511 z m 0.06376,-0.669432 q -0.255021,0.191267 -0.350655,0.03188 -0.12751,-0.159388 0.127511,-0.350655 0.2869,-0.159388 0.382533,0 0.12751,0.127511 -0.159389,0.318777 z m 0.06376,-0.669431 q -0.2869,0.159388 -0.382533,0 -0.127511,-0.191267 0.159389,-0.350655 0.286899,-0.159389 0.382532,0 0.127511,0.191266 -0.159388,0.350655 z m 0.510043,1.562007 q -0.255022,0.127511 -0.318777,0 -0.06376,-0.159388 0.127511,-0.286899 0.223143,-0.159389 0.350654,-0.03188 0.06376,0.159389 -0.159388,0.318777 z m 0.09563,-0.701309 q -0.255022,0.159388 -0.350655,0.03188 -0.09563,-0.159388 0.127511,-0.318777 0.223144,-0.159388 0.350655,0 0.06375,0.06376 0,0.159389 -0.03188,0.06376 -0.127511,0.127511 z m 0.06376,-0.669432 q -0.286899,0.159388 -0.382532,0 -0.127511,-0.127511 0.159388,-0.318777 0.255022,-0.191266 0.382533,0 0.06376,0.159388 -0.159389,0.318777 z m 0.06376,-0.669432 q -0.2869,0.159389 -0.382533,0 -0.127511,-0.191266 0.159389,-0.350655 0.255021,-0.191266 0.382532,0 0.127511,0.191267 -0.159388,0.350655 z m 0.06375,-0.701309 q -0.286899,0.223144 -0.41441,0.03188 -0.06375,-0.06376 0,-0.191266 0.06376,-0.127511 0.191266,-0.191266 0.255022,-0.191266 0.382533,0 0.12751,0.191266 -0.159389,0.350655 z m 0.573799,0.892575 q -0.223144,0.191267 -0.350655,0 -0.127511,-0.12751 0.159388,-0.318777 0.223144,-0.159388 0.350655,-0.03188 0.127511,0.191266 -0.159388,0.350654 z m 0.09563,-0.669431 q -0.2869,0.191266 -0.41441,0 -0.09563,-0.159389 0.159388,-0.350655 0.286899,-0.191266 0.41441,0 0.06376,0.127511 -0.159388,0.350655 z m 0.06376,-0.70131 q -0.286899,0.223144 -0.41441,0.03188 -0.127511,-0.191266 0.159389,-0.382532 0.12751,-0.06376 0.223143,-0.06376 0.127511,-0.03188 0.191267,0.06376 0.127511,0.191266 -0.159389,0.350654 z m 0.06376,-0.669431 q -0.127511,0.06376 -0.255022,0.09563 -0.127511,0 -0.191266,-0.09563 -0.09563,-0.159389 0.191266,-0.382533 0.127511,-0.06376 0.223144,-0.06376 0.127511,-0.03188 0.191266,0.06376 0.09563,0.159389 -0.159388,0.382533 z m 0.06376,-0.669432 q -0.350655,0.159388 -0.446288,0 -0.127511,-0.191266 0.191266,-0.41441 0.127511,-0.06376 0.255022,-0.06376 0.127511,-0.03188 0.191266,0.06376 0.06376,0.06376 0,0.191266 -0.06376,0.127511 -0.191266,0.223144 z m -0.223144,-1.11572 q 0.350655,-0.223144 0.478166,0 0.12751,0.191266 -0.191267,0.41441 -0.318777,0.191267 -0.478165,0.03188 -0.09563,-0.223144 0.191266,-0.446288 z m 0.860698,1.306986 q -0.286899,0.191266 -0.41441,0 -0.127511,-0.191266 0.191266,-0.382532 0.127511,-0.06376 0.223144,-0.06376 0.127511,-0.03188 0.191266,0.06376 0.127511,0.191266 -0.191266,0.382532 z m 0.09563,-0.701309 q -0.318777,0.223144 -0.446288,0.03188 -0.12751,-0.191266 0.159389,-0.41441 0.318777,-0.223144 0.446288,0 0.06376,0.06376 0,0.191266 -0.03188,0.127511 -0.159389,0.191267 z M 19.323201,9.9635538 q 0.318777,-0.2231439 0.478166,0 0.06376,0.063755 0,0.1912662 -0.06376,0.127511 -0.191266,0.223144 -0.350655,0.223144 -0.478166,0.03188 -0.127511,-0.223144 0.191266,-0.4462882 z m 0.924454,0.6056762 q -0.127511,0.09563 -0.255022,0.09563 -0.127511,0 -0.191266,-0.06376 -0.09563,-0.223144 0.191266,-0.41441 0.127511,-0.09563 0.255022,-0.09563 0.12751,0 0.191266,0.09563 0.127511,0.223144 -0.191266,0.382532 z m 0.06375,-0.6694316 q -0.127511,0.095633 -0.255022,0.095633 -0.12751,0 -0.191266,-0.095633 -0.06376,-0.063755 -0.03188,-0.1912662 0.06376,-0.1275108 0.223144,-0.2231439 0.127511,-0.095633 0.255022,-0.095633 0.127511,0 0.191266,0.095633 0.159389,0.1593885 -0.191266,0.4144101 z m 1.24323,-2.0720506 q 0.350655,-0.2231439 0.478166,-0.031878 0.159388,0.2231439 -0.191266,0.4462878 -0.350655,0.2231439 -0.510044,0.031878 -0.12751,-0.2231439 0.223144,-0.4462878 z m -0.733187,0.4781655 q 0.350655,-0.2231439 0.478166,0 0.06376,0.063755 0,0.2231439 -0.03188,0.1275108 -0.191267,0.2231439 -0.159388,0.063755 -0.286899,0.095633 -0.127511,0 -0.191266,-0.095633 -0.159389,-0.2231439 0.191266,-0.4462878 z m -0.733187,0.4781655 q 0.350655,-0.2231439 0.510043,0 0.127511,0.1912662 -0.223144,0.4462879 -0.318777,0.2231439 -0.478165,0 -0.09563,-0.223144 0.191266,-0.4462879 z m -0.701309,0.4781656 q 0.350654,-0.223144 0.478165,0 0.159389,0.2231439 -0.191266,0.4462878 -0.159389,0.095633 -0.286899,0.095633 -0.127511,0 -0.191267,-0.095633 -0.159388,-0.2231439 0.191267,-0.4462878 z m -0.733188,0.4781655 q 0.350655,-0.2231439 0.478166,0 0.159389,0.2231439 -0.191266,0.4462881 -0.159389,0.09563 -0.2869,0.09563 -0.12751,0 -0.191266,-0.09563 -0.06376,-0.06376 -0.03188,-0.1912665 0.06376,-0.1593885 0.223143,-0.2550216 z M 17.95246,10.218575 q 0.350655,-0.159388 0.478166,0 0.09563,0.223144 -0.223144,0.446288 -0.2869,0.255022 -0.478166,0 -0.06376,-0.06376 0,-0.191266 0.06376,-0.159389 0.223144,-0.255022 z m -0.733187,0.510044 q 0.159388,-0.09563 0.286899,-0.09563 0.127511,-0.03188 0.191266,0.06376 0.159389,0.223144 -0.191266,0.446288 -0.350654,0.223144 -0.478165,0.03188 -0.159389,-0.223144 0.191266,-0.446287 z m -0.733187,0.478165 q 0.350655,-0.223144 0.510043,-0.03188 0.09563,0.223144 -0.223144,0.446288 -0.350655,0.223144 -0.478165,0.03188 -0.159389,-0.223144 0.191266,-0.446288 z m -0.70131,0.478166 q 0.318777,-0.191267 0.478166,-0.03188 0.09563,0.223144 -0.191266,0.446288 -0.318777,0.223144 -0.510043,0.03188 -0.127511,-0.223143 0.223143,-0.446287 z m -0.733187,0.478165 q 0.350655,-0.223144 0.478166,-0.03188 0.159388,0.223144 -0.191266,0.446288 -0.159389,0.09563 -0.2869,0.127511 -0.12751,0 -0.191266,-0.09563 -0.159388,-0.223144 0.191266,-0.446288 z m -0.06376,0.70131 q 0.318777,-0.191267 0.478165,-0.03188 0.09563,0.223144 -0.191266,0.446288 -0.159388,0.06375 -0.286899,0.09563 -0.127511,0 -0.191266,-0.09563 -0.127511,-0.191267 0.191266,-0.41441 z m -0.70131,0.478165 q 0.127511,-0.09563 0.255022,-0.09563 0.127511,0 0.191266,0.06376 0.159389,0.223144 -0.191266,0.446288 -0.318777,0.223144 -0.478165,0 -0.127511,-0.191266 0.223143,-0.41441 z m -0.06376,0.701309 q 0.127511,-0.09563 0.255022,-0.09563 0.12751,0 0.191266,0.06376 0.09563,0.191266 -0.191266,0.41441 -0.127511,0.09563 -0.255022,0.09563 -0.127511,0 -0.191266,-0.06375 -0.127511,-0.255022 0.191266,-0.414411 z m -0.06375,0.70131 q 0.286899,-0.223144 0.41441,-0.03188 0.06376,0.09563 0,0.223144 -0.03188,0.09563 -0.159389,0.159389 -0.286899,0.223144 -0.41441,0.03188 -0.06376,-0.06376 -0.03188,-0.191266 0.06376,-0.127511 0.191267,-0.191266 z m -0.06376,0.701309 q 0.2869,-0.223144 0.41441,-0.03188 0.127511,0.191266 -0.159388,0.382532 -0.286899,0.191266 -0.41441,0 -0.127511,-0.191266 0.159388,-0.350655 z m -0.669431,-0.223144 q 0.318777,-0.223144 0.446287,-0.03188 0.09563,0.191266 -0.191266,0.41441 -0.286899,0.191266 -0.41441,0 -0.127511,-0.191266 0.159389,-0.382533 z m -0.03188,0.70131 q 0.255021,-0.223144 0.382532,-0.03188 0.127511,0.191266 -0.159388,0.382533 -0.2869,0.191266 -0.41441,0 -0.06376,-0.06376 0,-0.159389 0.06376,-0.127511 0.191266,-0.191266 z m -0.06376,0.701309 q 0.2869,-0.159388 0.382533,-0.03188 0.127511,0.191266 -0.159389,0.350654 -0.286899,0.159389 -0.382532,0.03188 -0.127511,-0.191266 0.159388,-0.350655 z m -0.06375,0.70131 q 0.286899,-0.159389 0.382532,-0.03188 0.06376,0.191266 -0.159388,0.350655 -0.286899,0.159388 -0.382532,0 -0.09563,-0.127511 0.159388,-0.318777 z m -0.06376,0.669431 q 0.286899,-0.09563 0.350654,0 0.09563,0.159389 -0.12751,0.318777 -0.255022,0.159389 -0.350655,0 -0.127511,-0.12751 0.127511,-0.318777 z m 0.159388,0.988209 q -0.223144,0.159389 -0.350655,0.03188 -0.06376,-0.159389 0.159389,-0.318777 0.223144,-0.09563 0.318777,0 0.06376,0.191266 -0.127511,0.286899 z m -0.09563,0.70131 q -0.06376,0.06376 -0.159388,0.06376 -0.09563,0 -0.127511,-0.06376 -0.09563,-0.09563 0.127511,-0.2869 0.223143,-0.127511 0.286899,0 0.09563,0.09563 -0.127511,0.2869 z m -0.669432,-2.582094 q 0.2869,-0.159389 0.382533,-0.03188 0.127511,0.191266 -0.159389,0.350655 -0.09563,0.09563 -0.223144,0.09563 -0.09563,0 -0.159388,-0.06376 -0.127511,-0.191266 0.159388,-0.350654 z m -0.06376,0.701309 q 0.286899,-0.159388 0.382532,-0.03188 0.127511,0.191267 -0.159388,0.350655 -0.223144,0.191266 -0.350655,0 -0.09563,-0.159388 0.127511,-0.318777 z M 9.3454809,18.4749 q -0.2868993,0.223144 -0.4144102,0.03188 -0.095633,-0.191267 0.1593886,-0.414411 0.318777,-0.159388 0.4462878,0 0.063755,0.06376 0,0.191267 -0.063755,0.12751 -0.1912662,0.191266 z m -0.063755,0.701309 q -0.2868993,0.191267 -0.4144102,0 -0.095633,-0.159388 0.1912663,-0.382532 0.2868993,-0.159389 0.3825324,0 0.1275108,0.127511 -0.1593885,0.382532 z m 2.2314395,-2.135806 q -0.127511,0.06376 -0.255022,0.09563 -0.09563,0 -0.159389,-0.09563 -0.09563,-0.159388 0.159389,-0.382532 0.350655,-0.191266 0.446288,0 0.09563,0.159388 -0.191266,0.382532 z m -0.06376,0.669432 q -0.286899,0.223144 -0.41441,0.03188 -0.06375,-0.06376 0,-0.191266 0.06376,-0.127511 0.191266,-0.191267 0.2869,-0.191266 0.382533,0 0.12751,0.191267 -0.159389,0.350655 z M 10.87561,16.849137 q -0.350654,0.159389 -0.446287,0 -0.06376,-0.06376 -0.03188,-0.191266 0.06376,-0.127511 0.191266,-0.223144 0.350655,-0.159388 0.478166,0 0.06376,0.06376 0,0.191266 -0.06376,0.127511 -0.191267,0.223144 z m -0.318777,0.286899 q 0.2869,-0.191266 0.414411,0 0.09563,0.159389 -0.159389,0.382533 -0.350655,0.191266 -0.446288,0 -0.09563,-0.159389 0.191266,-0.382533 z m -0.41441,0.191267 q -0.12751,0.06376 -0.2550212,0.09563 -0.1275108,0 -0.1912662,-0.09563 -0.1275108,-0.191267 0.1912662,-0.41441 0.1275112,-0.06376 0.2550212,-0.06376 0.127511,0 0.191267,0.06376 0.12751,0.191266 -0.191267,0.41441 z m -0.3187766,0.286899 q 0.2868996,-0.191266 0.4144096,0 0.06376,0.06376 0,0.191266 -0.03188,0.127511 -0.159388,0.191266 -0.2868993,0.223144 -0.4144101,0 -0.1275108,-0.12751 0.1593885,-0.382532 z m -0.4144101,0.191266 q -0.1275108,0.06376 -0.2550216,0.09563 -0.1275108,0 -0.1912662,-0.09563 -0.063755,-0.06376 0,-0.191266 0.063755,-0.127511 0.1912662,-0.191266 0.318777,-0.223144 0.4462878,-0.03188 0.1275108,0.191266 -0.1912662,0.41441 z m 0.5419209,1.562008 q -0.2868993,0.159388 -0.3825324,0 -0.1275108,-0.191267 0.1593885,-0.350655 0.2550216,-0.191266 0.3825327,0 0.09563,0.159388 -0.1593888,0.350655 z m -0.063755,0.669431 q -0.2550216,0.159389 -0.3825324,0.03188 -0.1275108,-0.191266 0.1593885,-0.350655 0.2231439,-0.159388 0.3506551,0 0.12751,0.127511 -0.1275112,0.318777 z m 0.1275112,-1.370741 q -0.2868997,0.223144 -0.4144105,0.03188 -0.095633,-0.159389 0.1593885,-0.382533 0.286899,-0.191266 0.41441,0 0.127511,0.191267 -0.159388,0.350655 z m 0.318777,1.275108 q 0.223143,-0.159388 0.350654,0 0.09563,0.159389 -0.159388,0.286899 -0.223144,0.159389 -0.350655,0.03188 -0.09563,-0.159388 0.159389,-0.318777 z m 0.255021,-0.382532 q -0.223144,0.191266 -0.350655,0 -0.12751,-0.127511 0.127511,-0.318777 0.2869,-0.159389 0.382533,0 0.12751,0.127511 -0.159389,0.318777 z m 0.06376,-0.669432 q -0.255022,0.191266 -0.382533,0 -0.09563,-0.159389 0.159389,-0.350655 0.286899,-0.159388 0.382532,0 0.127511,0.191266 -0.159388,0.350655 z m 0.06376,-0.701309 q -0.255022,0.223143 -0.382532,0.03188 -0.127511,-0.191266 0.159388,-0.382532 0.286899,-0.191266 0.41441,0 0.06376,0.06376 0,0.191266 -0.06376,0.09563 -0.191266,0.159389 z m 0.318777,1.275108 q 0.223144,-0.127511 0.350655,-0.03188 0.09563,0.159388 -0.127511,0.318777 -0.255022,0.159388 -0.350655,0.03188 -0.09563,-0.159389 0.127511,-0.318777 z m 0.286899,-0.382533 q -0.286899,0.159389 -0.382532,0 -0.06376,-0.06376 0,-0.159388 0.06376,-0.09563 0.159388,-0.159389 0.255022,-0.159388 0.382533,-0.03188 0.09563,0.159389 -0.159389,0.350655 z m 0.06376,-0.669432 q -0.2869,0.159389 -0.382533,0 -0.127511,-0.191266 0.159389,-0.350654 0.286899,-0.159389 0.382532,0 0.09563,0.159388 -0.159388,0.350654 z m 0.318777,1.275109 q 0.255021,-0.191267 0.318777,-0.03188 0.09563,0.159388 -0.127511,0.318777 -0.223144,0.09563 -0.318777,0 -0.127511,-0.159389 0.127511,-0.286899 z m 0.255021,-0.414411 q -0.255021,0.191267 -0.318777,0.03188 -0.12751,-0.191266 0.127511,-0.318777 0.223144,-0.159388 0.350655,-0.03188 0.09563,0.159389 -0.159389,0.318777 z m 0.09563,-0.669431 q -0.286899,0.159388 -0.382532,0 -0.09563,-0.159389 0.159389,-0.318777 0.223143,-0.159389 0.350654,-0.03188 0.127511,0.159388 -0.127511,0.350655 z m 0.06376,-0.70131 q -0.255022,0.223144 -0.382533,0.03188 -0.12751,-0.191266 0.159389,-0.350655 0.09563,-0.06376 0.191266,-0.06376 0.127511,-0.03188 0.191266,0.03188 0.09563,0.159388 -0.159388,0.350654 z m 0.318777,1.275108 q 0.223144,-0.09563 0.318777,0 0.09563,0.159389 -0.127511,0.2869 -0.255022,0.191266 -0.318777,0.03188 -0.09563,-0.159388 0.127511,-0.318777 z m 0.255021,-0.382532 q -0.223143,0.191266 -0.350654,0 -0.06376,-0.06376 -0.03188,-0.127511 0.06376,-0.09563 0.191266,-0.159388 0.223144,-0.159389 0.350655,-0.03188 0.06375,0.159388 -0.159389,0.318777 z m -0.765064,-1.912662 q 0.12751,-0.06376 0.223144,-0.06376 0.12751,-0.03188 0.191266,0.03188 0.09563,0.223144 -0.159389,0.382533 -0.127511,0.06376 -0.255021,0.09563 -0.09563,0 -0.159389,-0.06376 -0.09563,-0.223144 0.159389,-0.382532 z m -0.605677,-0.924453 q 0.350655,-0.191267 0.446288,0 0.127511,0.191266 -0.191266,0.41441 -0.286899,0.159388 -0.446288,0 -0.06376,-0.06376 0,-0.191267 0.06376,-0.12751 0.191266,-0.223143 z m -0.669431,-0.223144 q 0.159388,-0.06376 0.286899,-0.06376 0.127511,-0.03188 0.191266,0.06376 0.127511,0.191266 -0.191266,0.41441 -0.318777,0.191266 -0.478166,0.03188 -0.09563,-0.223143 0.191267,-0.446287 z m -0.7013098,0.510043 q 0.1275108,-0.09563 0.2550218,-0.09563 0.127511,-0.03188 0.191266,0.06376 0.159388,0.223144 -0.191266,0.41441 -0.3187772,0.223144 -0.446288,0.03188 -0.1593885,-0.223144 0.1912662,-0.41441 z m -0.7331871,0.478165 q 0.318777,-0.191266 0.4781655,-0.03188 0.063755,0.09563 0,0.223144 -0.063755,0.12751 -0.1912662,0.191266 -0.1593885,0.09563 -0.2868993,0.127511 -0.1275108,0 -0.1912662,-0.09563 -0.1275109,-0.255021 0.1912662,-0.41441 z m -0.7331872,0.478166 q 0.3506547,-0.223144 0.4781656,-0.03188 0.1275108,0.255022 -0.1912663,0.446288 -0.3506547,0.159388 -0.4781655,0 -0.095633,-0.191266 0.1912662,-0.41441 z m 0.2231439,1.083842 q -0.3506547,0.223144 -0.4462878,0 -0.063755,-0.06376 -0.031878,-0.191267 0.063755,-0.12751 0.2231439,-0.191266 0.2550216,-0.223144 0.4462878,-0.03188 0.095633,0.191266 -0.1912662,0.41441 z m 0.5100433,1.562007 q -0.2868994,0.159389 -0.3825325,0 -0.1275108,-0.191266 0.1593886,-0.350655 0.2868993,-0.159388 0.3825324,0 0.1275108,0.191267 -0.1593885,0.350655 z m 0.5100432,1.562007 q -0.2231439,0.159389 -0.318777,0 -0.095633,-0.09563 0.1275108,-0.286899 0.2231439,-0.159388 0.3506547,0 0.063755,0.127511 -0.1593885,0.286899 z m 0.063755,-0.701309 q -0.2550216,0.191266 -0.318777,0.03188 -0.095633,-0.159389 0.1275108,-0.318777 0.2231439,-0.159389 0.3506547,0 0.1593888,0.159388 -0.1593885,0.286899 z m 0.4781653,2.263317 q -0.191266,0.09563 -0.2868991,0 -0.063755,-0.127511 0.1275111,-0.255022 0.191266,-0.127511 0.255021,0 0.06376,0.159389 -0.09563,0.255022 z m 0.06376,-0.70131 q -0.223144,0.159389 -0.2869,0.03188 -0.1275105,-0.127511 0.09563,-0.255022 0.223144,-0.159388 0.2869,-0.03188 0.12751,0.12751 -0.09563,0.255021 z m 0.06375,-0.669431 q -0.223144,0.159388 -0.318777,0 -0.06376,-0.159389 0.127511,-0.255022 0.191266,-0.159389 0.318777,-0.03188 0.06376,0.191266 -0.127511,0.2869 z m 0.06376,-0.669432 q -0.09563,0.06376 -0.191266,0.06376 -0.09563,0 -0.127511,-0.06376 -0.06376,-0.06376 -0.03188,-0.127511 0.06376,-0.09563 0.159388,-0.159388 0.255022,-0.191267 0.318777,-0.03188 0.09563,0.159388 -0.127511,0.318777 z m 0.446288,2.231439 q -0.159388,0.09563 -0.255021,0 -0.06376,-0.09563 0.12751,-0.223144 0.159389,-0.09563 0.223144,0 0.09563,0.09563 -0.09563,0.223144 z m 0.06376,-0.669432 q -0.191267,0.127511 -0.255022,0 -0.09563,-0.06376 0.09563,-0.255021 0.191266,-0.09563 0.286899,0 0.06376,0.159388 -0.12751,0.255021 z m 0.06375,-0.701309 q -0.159389,0.159388 -0.286899,0.03188 -0.03188,-0.12751 0.12751,-0.286899 0.223144,-0.127511 0.2869,0 0.127511,0.127511 -0.127511,0.255022 z m 0.09563,-0.669432 q -0.255022,0.191266 -0.318777,0 -0.127511,-0.127511 0.127511,-0.255022 0.191266,-0.159388 0.318777,-0.03188 0.06375,0.159388 -0.127511,0.286899 z m 0.06376,-0.669432 q -0.223144,0.127511 -0.350655,0 -0.06376,-0.191266 0.159388,-0.286899 0.191267,-0.159388 0.318777,-0.03188 0.06376,0.191267 -0.12751,0.318777 z m 0.446287,2.231439 q -0.191266,0.127511 -0.255021,0 -0.06376,-0.12751 0.09563,-0.223144 0.191266,-0.12751 0.255021,0 0.06376,0.127511 -0.09563,0.223144 z m 0.06376,-0.669431 q -0.159389,0.12751 -0.2869,0 -0.06376,-0.127511 0.127511,-0.255022 0.191266,-0.127511 0.255022,0 0.06375,0.09563 -0.09563,0.255022 z m 0.06376,-0.70131 q -0.191266,0.191266 -0.286899,0.03188 -0.06376,-0.159389 0.127511,-0.286899 0.159388,-0.127511 0.286899,0 0.06376,0.159388 -0.127511,0.255021 z m 0.06376,-0.669431 q -0.255022,0.12751 -0.318777,0 -0.06376,-0.09563 0.12751,-0.2869 0.255022,-0.127511 0.318777,0 0.09563,0.09563 -0.12751,0.2869 z m 0.446287,2.231439 q -0.06376,0.06376 -0.12751,0.06376 -0.06376,0 -0.09563,-0.06376 -0.06376,-0.06376 0.09563,-0.191267 0.159388,-0.09563 0.223143,0 0.06376,0.06376 -0.09563,0.191267 z m 0.06376,-0.669432 q -0.159389,0.127511 -0.223144,0 -0.09563,-0.09563 0.09563,-0.223144 0.159388,-0.09563 0.255022,0 0.06376,0.127511 -0.127511,0.223144 z m 0.09563,-0.669432 q -0.223144,0.127511 -0.286899,0 -0.06376,-0.159388 0.12751,-0.255021 0.191267,-0.127511 0.255022,0 0.06376,0.09563 -0.09563,0.255021 z m 0.06375,-0.701309 q -0.255021,0.127511 -0.286899,0 -0.09563,-0.06376 0.09563,-0.255022 0.223144,-0.127511 0.286899,0 0.127511,0.127511 -0.09563,0.255022 z m 0.06376,-0.669432 q -0.223144,0.09563 -0.318777,0 -0.06376,-0.127511 0.12751,-0.286899 0.223144,-0.09563 0.318777,0 0.06376,0.127511 -0.12751,0.286899 z m 0.382532,2.932749 q -0.159388,0.06376 -0.223144,0 -0.06376,-0.127511 0.09563,-0.191267 0.159389,-0.09563 0.223144,-0.03188 0.03188,0.09563 -0.09563,0.223144 z m 0.06376,-0.70131 q -0.159388,0.127511 -0.223143,0 -0.06376,-0.06376 0.09563,-0.191266 0.159388,-0.09563 0.223144,0 0.06376,0.06376 -0.09563,0.191266 z m 0.06376,-0.669432 q -0.159389,0.09563 -0.255022,0 -0.06376,-0.12751 0.127511,-0.223144 0.159389,-0.09563 0.223144,0 0.09563,0.09563 -0.09563,0.223144 z m 0.06376,-0.701309 q -0.191266,0.191266 -0.255021,0.03188 -0.127511,-0.127511 0.09563,-0.255022 0.191266,-0.09563 0.286899,0 0.06375,0.127511 -0.127511,0.223144 z m 0.06376,-0.669432 q -0.191267,0.127511 -0.2869,0 -0.03188,-0.09563 0.127511,-0.255021 0.223144,-0.127511 0.286899,0 0.06376,0.159388 -0.12751,0.255021 z m 0.382532,2.932749 q -0.127511,0.06376 -0.191266,0 -0.06376,-0.06376 0.09563,-0.159389 0.09563,-0.09563 0.191266,-0.03188 0.03188,0.09563 -0.09563,0.191266 z m 0.09563,-0.70131 q -0.159388,0.09563 -0.223144,0.03188 -0.06376,-0.127511 0.09563,-0.191266 0.09563,-0.09563 0.191267,-0.03188 0.06375,0.127511 -0.06376,0.191266 z m 0.06376,-0.669431 q -0.159389,0.09563 -0.255022,0 -0.03188,-0.03188 0,-0.06376 0.03188,-0.06376 0.09563,-0.127511 0.159389,-0.09563 0.255022,0 0.03188,0.06376 -0.09563,0.191267 z m 0.06375,-0.669432 q -0.191266,0.127511 -0.255022,0 -0.06376,-0.127511 0.09563,-0.223144 0.191267,-0.127511 0.255022,0 0.09563,0.09563 -0.09563,0.223144 z m 0.06376,-0.70131 q -0.159388,0.159389 -0.286899,0.03188 -0.06376,-0.127511 0.127511,-0.255021 0.191266,-0.127511 0.255021,0 0.09563,0.09563 -0.09563,0.223143 z m 0.06376,-0.669431 q -0.223144,0.127511 -0.2869,0 -0.06376,-0.159389 0.127511,-0.255022 0.159389,-0.127511 0.2869,0 0.06376,0.127511 -0.127511,0.255022 z m 0.382532,2.932748 q -0.127511,0.06376 -0.191266,0 -0.06376,-0.09563 0.09563,-0.191266 0.127511,-0.06376 0.191266,0 0.03188,0.06376 -0.09563,0.191266 z m 0.06376,-0.701309 q -0.127511,0.127511 -0.191267,0.03188 -0.06376,-0.06376 -0.03188,-0.09563 0.03188,-0.06376 0.09563,-0.12751 0.159388,-0.06376 0.223144,0 0.06376,0.12751 -0.09563,0.191266 z m 0.06375,-0.669432 q -0.159389,0.127511 -0.223144,0 -0.06375,-0.09563 0.09563,-0.191266 0.159389,-0.09563 0.223144,-0.03188 0.06376,0.127511 -0.09563,0.223144 z m 0.06376,-0.669432 q -0.159388,0.127511 -0.223144,0 -0.09563,-0.09563 0.09563,-0.223144 0.12751,-0.09563 0.255021,-0.03188 0.06376,0.127511 -0.127511,0.255021 z m 0.09563,-0.701309 q -0.255021,0.127511 -0.286899,0.03188 -0.06376,-0.159389 0.127511,-0.255022 0.191266,-0.127511 0.255022,0 0.06376,0.127511 -0.09563,0.223144 z m 0.382533,2.932748 q -0.159389,0.06376 -0.191266,0 -0.06376,-0.03188 0.06375,-0.159388 0.127511,-0.03188 0.191266,0 0.09563,0.09563 -0.06376,0.159388 z m 0.06376,-0.669431 q -0.159388,0.06376 -0.191266,0 -0.03188,-0.09563 0.06376,-0.191267 0.12751,-0.03188 0.191266,0 0.03188,0.09563 -0.06376,0.191267 z m 0.06376,-0.70131 q -0.159389,0.127511 -0.223144,0 -0.06376,-0.06376 0.09563,-0.191266 0.159388,-0.06376 0.223144,0 0.06375,0.127511 -0.09563,0.191266 z m 0.06376,-0.669431 q -0.159388,0.12751 -0.223144,0 -0.06376,-0.127511 0.09563,-0.191267 0.159389,-0.09563 0.223144,-0.03188 0.06376,0.12751 -0.09563,0.223144 z m 0.06376,-0.669432 q -0.159389,0.09563 -0.255022,0 -0.06375,-0.127511 0.09563,-0.223144 0.223144,-0.09563 0.255022,-0.03188 0.06376,0.09563 -0.09563,0.255022 z m 0.06376,-0.70131 q -0.191266,0.127511 -0.255022,0 -0.09563,-0.09563 0.09563,-0.223143 0.223144,-0.09563 0.2869,-0.03188 0.03188,0.127511 -0.127511,0.255021 z m 0.06376,-0.669431 q -0.159388,0.127511 -0.286899,0 -0.06376,-0.127511 0.127511,-0.255022 0.255021,-0.127511 0.286899,0 0.06376,0.127511 -0.127511,0.255022 z"
         id="path7618" />
    </g>
  </g>
</svg>
